<svg width="98" height="53" viewBox="0 0 98 53" fill="none" xmlns="http://www.w3.org/2000/svg">
<path d="M11.263 23.4257V5.19577H17.3969V0.262573H0V5.19577H6.10116V23.4257H11.263Z" fill="black"/>
<path d="M21.531 6.69861C24.0575 6.69861 26.045 7.43369 27.4933 8.90385C28.9417 10.374 29.6659 12.4159 29.6659 15.0295C29.6659 15.8572 29.6332 16.369 29.5679 16.565H18.264L18.2819 16.7852C18.3735 17.5813 18.7486 18.2539 19.4075 18.8029C20.1262 19.4019 20.9756 19.7013 21.9558 19.7013C23.6328 19.7013 24.7218 18.9935 25.2228 17.5778L29.3719 18.7539L29.2832 19.0509C28.8414 20.4204 28.0106 21.5574 26.7909 22.462C25.4841 23.4312 23.8506 23.9158 21.8904 23.9158C19.5382 23.9158 17.5398 23.1317 15.8954 21.5635C14.251 19.9954 13.4288 17.8936 13.4288 15.2582C13.4288 12.7317 14.2293 10.6735 15.8301 9.08353C17.4309 7.49358 19.3312 6.69861 21.531 6.69861ZM21.5964 10.619C20.6381 10.619 19.8757 10.9022 19.3095 11.4685C18.7432 12.0347 18.4274 12.6664 18.362 13.3633H24.8634C24.8198 12.6228 24.5312 11.9803 23.9976 11.4358C23.464 10.8913 22.6636 10.619 21.5964 10.619Z" fill="black"/>
<path d="M33.7674 23.4257C33.9852 23.099 34.4534 22.3803 35.1722 21.2695C35.8909 20.1587 36.4137 19.3529 36.7404 18.8519L39.746 23.4257H45.5613C45.3217 23.0773 43.3833 20.3112 39.746 15.1275L45.3653 7.18866H39.8114L36.9691 11.6318L34.0614 7.18866H28.2134L33.8981 15.3235L28.3115 23.4257H33.7674Z" fill="black"/>
<path d="M55.6655 23.606V19.2088C53.5315 19.3381 52.3352 19.2088 52.3352 17.8185V11.4967H55.6655V7.17066H52.3352V2.91315L47.4853 4.36811V7.17066H45.9091V11.4967H47.4853V17.8185C47.4853 22.345 49.3283 24.2527 55.6655 23.606Z" fill="black"/>
<path d="M59.555 5.81529C60.3609 5.81529 61.0524 5.53215 61.6296 4.96587C62.2068 4.39958 62.4953 3.71351 62.4953 2.90765C62.4953 2.10178 62.2068 1.41571 61.6296 0.849425C61.0524 0.283142 60.3609 0 59.555 0C58.7709 0 58.0958 0.283142 57.5295 0.849425C56.9632 1.41571 56.6801 2.10178 56.6801 2.90765C56.6801 3.71351 56.9632 4.39958 57.5295 4.96587C58.0958 5.53215 58.7709 5.81529 59.555 5.81529Z" fill="black"/>
<path d="M62.0379 23.4257V7.18866H57.0721V23.4257H62.0379Z" fill="black"/>
<path d="M68.8511 23.4258V14.1148C68.8511 13.2871 69.0961 12.6065 69.5861 12.0729C70.0762 11.5393 70.7242 11.2725 71.53 11.2725C72.4012 11.2725 73.0601 11.5284 73.5066 12.0402C73.9531 12.552 74.1763 13.2327 74.1763 14.0821V23.4258H79.1422V13.2327C79.1422 11.3378 78.6412 9.78597 77.6393 8.57717C76.6375 7.36837 75.1673 6.76398 73.2289 6.76398C72.3359 6.76398 71.4592 6.96544 70.5989 7.36838C69.7386 7.77131 69.1015 8.33215 68.6877 9.05089V7.18869H63.8852V23.4258H68.8511Z" fill="black"/>
<path d="M88.2504 6.89465C89.4483 6.89465 90.4284 7.10156 91.1907 7.51539C91.953 7.92921 92.4757 8.39748 92.7589 8.92021V7.18868H97.496V21.4002L97.4906 21.7759C97.4212 24.1342 96.6934 26.0944 95.3071 27.6566C93.8479 29.301 91.6807 30.1232 88.8058 30.1232C86.5842 30.1232 84.7383 29.5514 83.2682 28.408C81.798 27.2645 80.9431 25.9087 80.7036 24.3405L85.0814 23.0991L85.1403 23.3363C85.3373 24.0341 85.7152 24.6084 86.2738 25.0593C86.8946 25.5602 87.6623 25.8107 88.5771 25.8107C91.256 25.8107 92.5955 24.4277 92.5955 21.6616V20.9102L92.476 21.0803C91.6502 22.1865 90.2417 22.7397 88.2504 22.7397C86.0941 22.7397 84.2973 21.9883 82.8598 20.4854C81.4223 18.9826 80.7036 17.0986 80.7036 14.8335C80.7036 12.6555 81.4169 10.7879 82.8435 9.23057C84.2701 7.67329 86.0724 6.89465 88.2504 6.89465ZM89.1651 11.2398C88.2068 11.2398 87.3846 11.5719 86.6985 12.2362C86.0125 12.9005 85.6694 13.7663 85.6694 14.8335C85.6694 15.9225 85.9961 16.7937 86.6495 17.4471C87.3029 18.1005 88.1415 18.4272 89.1651 18.4272C90.1888 18.4272 91.0219 18.1005 91.6644 17.4471C92.3069 16.7937 92.6282 15.9225 92.6282 14.8335C92.6282 13.7663 92.2906 12.9005 91.6154 12.2362C90.9402 11.5719 90.1235 11.2398 89.1651 11.2398Z" fill="black"/>
<path d="M14.6362 28.849L15.0057 28.8543C17.0741 28.9149 18.7152 29.4903 19.9288 30.5805C21.2138 31.7349 21.8563 33.2268 21.8563 35.0563C21.8563 36.2107 21.5351 37.2452 20.8926 38.16C20.2501 39.0748 19.4388 39.6955 18.4586 40.0222C19.5912 40.2836 20.5604 40.8989 21.3663 41.8681C22.1722 42.8373 22.5751 44.0297 22.5751 45.4455C22.5751 47.3621 21.9054 48.9357 20.5659 50.1663C19.3008 51.3285 17.6715 51.9419 15.6779 52.0065L15.3223 52.0122H5.97864V28.849H14.6362ZM14.2442 42.3745H11.0098V47.7977H14.2442C15.2461 47.7977 16.0302 47.5527 16.5964 47.0626C17.1627 46.5726 17.4459 45.9137 17.4459 45.0861C17.4459 44.2802 17.1627 43.6268 16.5964 43.1259C16.0302 42.6249 15.2461 42.3745 14.2442 42.3745ZM13.7541 33.1288H11.0098V38.1273H13.8195C14.7342 38.1273 15.4584 37.9041 15.9921 37.4576C16.5257 37.0111 16.7925 36.3958 16.7925 35.6117C16.7925 34.8494 16.5311 34.245 16.0084 33.7985C15.4857 33.352 14.7342 33.1288 13.7541 33.1288Z" fill="black"/>
<path d="M30.9318 35.285C33.393 35.285 35.2062 35.8731 36.3714 37.0492C37.5367 38.2254 38.1193 39.7282 38.1193 41.5577V49.4966L38.1217 49.8309C38.1346 50.7043 38.1991 51.4314 38.3153 52.0122H33.8395L33.8012 51.8406C33.7178 51.4214 33.6761 50.8687 33.6761 50.1826C32.7396 51.7072 31.215 52.4696 29.1023 52.4696C27.3817 52.4696 26.015 51.9849 25.0022 51.0157C23.9894 50.0465 23.483 48.8867 23.483 47.5364C23.483 46.1642 23.9295 45.0589 24.8225 44.2203C25.7155 43.3818 26.8698 42.8536 28.2855 42.6358L32.108 42.0478L32.27 42.0204C32.9461 41.8846 33.2841 41.5235 33.2841 40.937C33.2841 40.436 33.0717 40.0168 32.647 39.6792C32.2223 39.3416 31.6397 39.1728 30.8992 39.1728C30.0715 39.1728 29.4127 39.4069 28.9226 39.8752C28.4326 40.3435 28.1658 40.9043 28.1222 41.5577L23.8097 40.6756L23.8367 40.4238C24.0045 39.1712 24.6653 38.0191 25.819 36.9675C27.0495 35.8459 28.7538 35.285 30.9318 35.285ZM33.2841 44.9227L30.2131 45.4128L30.0155 45.4492C28.9275 45.6766 28.3836 46.2634 28.3836 47.2097C28.3836 47.667 28.5415 48.0591 28.8573 48.3858C29.1731 48.7125 29.6577 48.8758 30.3111 48.8758C31.1605 48.8758 31.8684 48.6254 32.4347 48.1244C33.0009 47.6235 33.2841 46.7958 33.2841 45.6415V44.9227Z" fill="black"/>
<path d="M46.3454 52.5022C48.3927 52.5022 49.9826 51.9632 51.1152 50.885C52.2478 49.8069 52.8141 48.5165 52.8141 47.0136C52.8141 45.7722 52.3893 44.694 51.5399 43.7793C50.6905 42.8645 49.449 42.2438 47.8155 41.9171L45.6593 41.4924C44.8099 41.3399 44.3851 40.937 44.3851 40.2836C44.3851 39.8698 44.5594 39.5322 44.9079 39.2708C45.2564 39.0094 45.6702 38.8788 46.1493 38.8788C46.8681 38.8788 47.418 39.0639 47.7992 39.4341C48.1803 39.8044 48.4036 40.2836 48.4689 40.8716L52.5854 40.1202C52.4765 38.9223 51.8938 37.817 50.8375 36.8042C49.7812 35.7914 48.1967 35.285 46.084 35.285C44.298 35.285 42.8115 35.8078 41.6245 36.8532C40.4375 37.8986 39.844 39.1728 39.844 40.6756C39.844 41.8953 40.236 42.9462 41.0201 43.8283C41.8042 44.7104 43.0239 45.3257 44.6792 45.6742L46.5414 46.0989C47.6086 46.3384 48.1422 46.7849 48.1422 47.4383C48.1422 47.8304 47.9789 48.1625 47.6522 48.4348C47.3255 48.707 46.8572 48.8432 46.2473 48.8432C45.4415 48.8432 44.8262 48.6308 44.4015 48.2061C43.9768 47.7814 43.7426 47.2641 43.6991 46.6543L39.4846 47.4057C39.5282 47.9066 39.6752 48.4293 39.9257 48.9738C40.1761 49.5183 40.5464 50.0683 41.0365 50.6237C41.5265 51.1791 42.2344 51.631 43.16 51.9795C44.0857 52.328 45.1475 52.5022 46.3454 52.5022Z" fill="black"/>
<path d="M61.4649 35.285C63.9914 35.285 65.9788 36.0201 67.4272 37.4903C68.8756 38.9604 69.5998 41.0023 69.5998 43.6159C69.5998 44.4436 69.5671 44.9554 69.5017 45.1514H58.1979L58.2158 45.3716C58.3073 46.1677 58.6825 46.8403 59.3413 47.3893C60.0601 47.9883 60.9095 48.2878 61.8896 48.2878C63.5667 48.2878 64.6557 47.5799 65.1566 46.1642L69.3057 47.3403L69.217 47.6373C68.7752 49.0068 67.9445 50.1438 66.7248 51.0484C65.418 52.0176 63.7845 52.5022 61.8242 52.5022C59.472 52.5022 57.4737 51.7181 55.8293 50.15C54.1849 48.5818 53.3627 46.48 53.3627 43.8446C53.3627 41.3181 54.1631 39.2599 55.7639 37.67C57.3648 36.08 59.2651 35.285 61.4649 35.285ZM61.5302 39.2055C60.5719 39.2055 59.8096 39.4886 59.2433 40.0549C58.677 40.6212 58.3612 41.2528 58.2959 41.9498H64.7972C64.7537 41.2092 64.4651 40.5667 63.9315 40.0222C63.3979 39.4777 62.5974 39.2055 61.5302 39.2055Z" fill="black"/>
</svg>
